<?xml version="1.0" standalone="no"?>
<!DOCTYPE svg PUBLIC "-//W3C//DTD SVG 20010904//EN"
 "http://www.w3.org/TR/2001/REC-SVG-20010904/DTD/svg10.dtd">
<svg version="1.0" xmlns="http://www.w3.org/2000/svg"
 width="480.000000pt" height="480.000000pt" viewBox="0 0 480.000000 480.000000"
 preserveAspectRatio="xMidYMid meet">
<metadata>
Created by potrace 1.11, written by Peter Selinger 2001-2013
</metadata>
<g transform="translate(0.000000,480.000000) scale(0.100000,-0.100000)"
fill="#000000" stroke="none">
<path d="M0 3870 l0 -930 950 0 c523 0 950 -3 950 -7 0 -5 -27 -63 -60 -130
-43 -91 -64 -123 -77 -123 -18 0 -1661 233 -1730 245 l-33 6 0 -1466 0 -1465
2400 0 2400 0 0 2400 0 2400 -2400 0 -2400 0 0 -930z m3810 -146 c66 -38 68
-53 32 -280 l-31 -202 -130 -261 c-72 -143 -129 -261 -126 -261 3 0 108 71
233 158 125 87 236 163 247 169 43 22 337 103 374 103 49 0 92 -34 115 -90 16
-41 86 -506 86 -575 0 -61 -18 -111 -50 -143 -24 -24 -63 -39 -217 -83 l-188
-54 -269 -5 -269 -5 185 -159 186 -160 76 -146 c71 -137 76 -151 76 -209 0
-61 -1 -64 -47 -111 -51 -51 -471 -345 -553 -386 -55 -27 -99 -30 -139 -9 -18
9 -64 70 -133 177 l-105 163 -19 233 c-10 127 -21 232 -24 232 -4 0 -56 -107
-117 -237 l-111 -237 -133 -154 c-74 -85 -147 -161 -164 -170 -38 -20 -102
-20 -140 0 -46 25 -414 347 -436 382 -19 31 -25 98 -12 132 3 10 69 90 146
178 l140 161 236 157 236 158 -255 0 -255 0 -148 55 c-229 85 -233 88 -224
185 4 45 31 111 138 340 116 246 141 292 185 337 46 48 54 53 95 53 28 0 102
-20 206 -57 l161 -57 178 -163 c98 -89 179 -161 180 -160 1 1 -14 117 -34 257
l-35 255 32 194 c18 107 38 206 46 220 20 39 50 62 107 82 48 17 83 19 343 16
272 -2 292 -3 325 -23z m-2106 -1396 c17 -85 82 -150 201 -201 33 -15 57 -26
53 -27 -7 0 -1753 245 -1798 253 -14 2 327 5 756 6 l782 1 6 -32z m259 -550
c-4 -7 -36 -55 -70 -106 -34 -51 -65 -101 -68 -112 -4 -11 -15 -20 -25 -20
-19 0 -1714 238 -1740 244 -8 2 418 4 948 5 768 1 961 -2 955 -11z m127 -690
c82 -73 148 -133 147 -134 -2 -3 -1835 254 -1857 260 -8 2 340 4 773 5 l788 1
149 -132z"/>
</g>
</svg>
